# xmcd
#
# Track frame offsets: 
#        150
#        23497
#        53979
#        90997
#        114527
#        183191
#        205956
#        239408
#        259327
#
# Disc length: 3560 seconds
#
# Revision: 0
# Processed by: cddbd v1.5.2PL0 Copyright (c) Steve Scherf et al.
# Submitted via: ExactAudioCopy v1.2
#
DISCID=710de609
DTITLE=Junior Wells - Pushin' and Shovin' (Live)
DYEAR=2018
DGENRE=Blues
TTITLE0=Everything Gonna Be Alright (Live in the Netherlands 1987)
TTITLE1=Driving Wheel (Live in the Netherlands 1987)
TTITLE2=Who's Making Love (Live in the Netherlands 1987)
TTITLE3=Messin' with the Kid (Live in the Netherlands 1987)
TTITLE4=Ships on the Ocean - Champagne and Reefer (Live in the Netherlan
TTITLE4=ds 1987)
TTITLE5=Trouble No More (Live in Philadelphia 1983)
TTITLE6=What My Momma Told Me (Live in Philadelphia 1983)
TTITLE7=I Got a Bag of My Own (Live in Philadelphia 1983)
TTITLE8=I Got You (I Feel Good) [Live in Philadelphia 1983]
EXTD=
EXTT0=
EXTT1=
EXTT2=
EXTT3=
EXTT4=
EXTT5=
EXTT6=
EXTT7=
EXTT8=
PLAYORDER=
